<svg width="24" height="24" viewBox="0 0 24 24" fill="none" xmlns="http://www.w3.org/2000/svg">
<circle cx="12" cy="12" r="12" fill="#C2A633"/>
<path fill-rule="evenodd" clip-rule="evenodd" d="M11.5137 4.00081L11.8375 4.00935L12.1379 4.02493L12.3004 4.03657L12.5582 4.0598L12.7385 4.07963L12.9251 4.10333L13.2155 4.14688L13.4154 4.18175L13.6197 4.22167L13.8278 4.267C13.8628 4.27502 13.8979 4.28329 13.9332 4.29179L14.1462 4.34586L14.3617 4.40617L14.5793 4.47308C14.6157 4.4848 14.6522 4.49681 14.6887 4.50911L14.9084 4.58654C15.0919 4.65412 15.2761 4.72945 15.4598 4.81341L15.6798 4.91837C17.6557 5.90133 19.5 7.9329 19.5 12.1284C19.5 15.8533 18.0292 17.8229 16.3778 18.8605L16.1828 18.9783C15.9871 19.0919 15.7896 19.1931 15.5924 19.2831L15.3953 19.3695L15.199 19.4488L15.0037 19.5213L14.8101 19.5872L14.6185 19.647L14.4295 19.7008L14.2435 19.749C14.2128 19.7566 14.1822 19.7639 14.1517 19.7711L13.9711 19.8114L13.7946 19.8468L13.5387 19.8915L13.3747 19.916L13.1397 19.9458L12.9911 19.9613L12.7814 19.9789L12.5288 19.9932L12.3618 19.9985L12.1583 20L11.9892 19.9966L11.8672 19.9905L6.41676 19.9896V12.8674H4.5V11.1227H6.41661V4L11.5137 4.00081ZM11.6247 6.95549H9.47943V11.1225H12.8546V12.8672H9.47943V17.034L11.8073 17.034L12.0433 17.0295L12.3095 17.0139L12.4946 16.9961L12.6959 16.9702L12.838 16.9476L12.9854 16.9202L13.1376 16.8876C13.1634 16.8817 13.1892 16.8756 13.2153 16.8692L13.3733 16.8279L13.5342 16.7803C13.6153 16.7548 13.6973 16.7267 13.7797 16.6958L13.945 16.6303L14.1108 16.5567C15.2995 16.0002 16.4738 14.795 16.4704 12.186C16.4669 9.54563 15.299 8.23253 14.0949 7.58271L13.9268 7.49627C13.8427 7.45514 13.7587 7.41708 13.6751 7.38188L13.5088 7.31522L13.3444 7.25576C13.3172 7.24642 13.2901 7.23738 13.2631 7.2286L13.1028 7.1792C13.0764 7.1715 13.0501 7.16405 13.024 7.15685L12.8694 7.11661L12.7194 7.08196L12.5748 7.05252L12.4362 7.02788L12.3042 7.00764L12.1796 6.9914L12.008 6.97366L11.9048 6.96566L11.7684 6.95841L11.6247 6.95549Z" fill="white"/>
</svg>
