<svg width="24" height="24" viewBox="0 0 24 24" fill="none" xmlns="http://www.w3.org/2000/svg">
<circle cx="12" cy="12" r="12" fill="#7950DD"/>
<path d="M16.0738 9.27695C15.7786 9.09936 15.3948 9.09936 15.0701 9.27695L12.7675 10.6385L11.2029 11.5264L8.90037 12.8879C8.60518 13.0655 8.2214 13.0655 7.89668 12.8879L6.06642 11.8224C5.77122 11.6448 5.56457 11.3192 5.56457 10.964V8.86258C5.56457 8.5074 5.7417 8.18182 6.06642 8.00423L7.86716 6.96828C8.16236 6.79069 8.5461 6.79069 8.87085 6.96828L10.6716 8.00423C10.9668 8.18182 11.1734 8.5074 11.1734 8.86258V10.2241L12.738 9.30655V7.94503C12.738 7.58985 12.5609 7.26427 12.2362 7.08668L8.90037 5.13319C8.60518 4.9556 8.2214 4.9556 7.89668 5.13319L4.50185 7.08668C4.17712 7.26427 4 7.58985 4 7.94503V11.8816C4 12.2368 4.17712 12.5624 4.50185 12.7399L7.89668 14.6934C8.19188 14.871 8.57566 14.871 8.90037 14.6934L11.2029 13.3615L12.7675 12.444L15.0701 11.112C15.3653 10.9345 15.7491 10.9345 16.0738 11.112L17.8745 12.148C18.1698 12.3256 18.3764 12.6512 18.3764 13.0063V15.1078C18.3764 15.463 18.1993 15.7886 17.8745 15.9661L16.0738 17.0317C15.7786 17.2093 15.3948 17.2093 15.0701 17.0317L13.2694 15.9958C12.9742 15.8182 12.7675 15.4926 12.7675 15.1374V13.7759L11.2029 14.6934V16.055C11.2029 16.4101 11.3801 16.7357 11.7048 16.9133L15.0996 18.8668C15.3948 19.0444 15.7786 19.0444 16.1033 18.8668L19.4982 16.9133C19.7934 16.7357 20 16.4101 20 16.055V12.1184C20 11.7632 19.8229 11.4376 19.4982 11.2601L16.0738 9.27695Z" fill="white"/>
</svg>
