<svg width="24" height="24" viewBox="0 0 24 24" fill="none" xmlns="http://www.w3.org/2000/svg">
<circle cx="12" cy="12" r="12" fill="#22A079"/>
<path fill-rule="evenodd" clip-rule="evenodd" d="M13.6242 8.04101V10.0353L13.6263 10.0374C17.2648 10.2079 20 10.9439 20 11.8223C20 12.7029 17.2648 13.4367 13.6263 13.6072V20H10.3843V13.6072C6.74159 13.4345 4 12.7007 4 11.8201C4 10.9396 6.73946 10.2058 10.3843 10.0353V8.04101H5.89981V5H18.1087V8.04101H13.6242ZM13.6242 13.059V13.0612V13.0633C16.8365 12.9165 19.2346 12.3468 19.2346 11.6647C19.2346 10.9827 16.8386 10.4129 13.6242 10.2662V12.4935C13.5309 12.5022 13.0305 12.5453 12.0297 12.5453C11.1964 12.5453 10.5921 12.5086 10.3822 12.4935V10.264C7.16353 10.4086 4.75908 10.9806 4.75908 11.6626C4.75908 12.3468 7.16141 12.9165 10.3822 13.0612V13.059C10.59 13.0698 11.1773 13.0935 12.0148 13.0935C13.0623 13.0935 13.533 13.0655 13.6242 13.059Z" fill="white"/>
</svg>
