<svg width="24" height="24" viewBox="0 0 24 24" fill="none" xmlns="http://www.w3.org/2000/svg">
<circle cx="12" cy="12" r="12" fill="#0657F9"/>
<path fill-rule="evenodd" clip-rule="evenodd" d="M10.7701 11.6989V10.4826C9.84595 10.0229 9.20968 9.06124 9.20968 7.94944C9.20968 6.39176 10.4591 5.12848 12 5.12848C13.7303 5.12848 14.9797 6.39176 14.9797 7.94944C14.9797 8.34213 14.8998 8.71611 14.7083 9.16043L14.2163 7.543L13.2299 7.85477L14.1046 11.2208L17.5 9.95779L17.0873 8.97332L15.821 9.41155C16.0501 8.90908 16.0952 8.53961 16.0952 7.94944C16.0952 5.76823 14.3465 4 12 4C9.84283 4 8.09408 5.76823 8.09408 7.94944C8.09408 9.69604 9.2157 11.1778 10.7701 11.6989ZM11.4237 6.91069H12.576V17.089H11.4237V6.91069ZM13.2299 13.5174V12.301C14.7842 12.8223 15.9059 14.3039 15.9059 16.0506C15.9059 18.2317 14.1571 20 12 20C9.6535 20 7.90475 18.2317 7.90475 16.0506C7.90475 15.4603 7.94979 15.0909 8.17897 14.5885L6.91266 15.0267L6.5 14.0424L9.89539 12.7792L10.77 16.1452L9.7837 16.457L9.29167 14.8396C9.10016 15.2839 9.02035 15.6578 9.02035 16.0506C9.02035 17.6082 10.2697 18.8716 12 18.8716C13.5409 18.8716 14.7902 17.6082 14.7902 16.0506C14.7902 14.9387 14.154 13.9773 13.2299 13.5174Z" fill="white"/>
</svg>
