<svg width="1440" height="951" viewBox="0 0 1440 951" fill="none" xmlns="http://www.w3.org/2000/svg">
<g filter="url(#filter0_i_1259_14364)">
<path d="M183.005 -259.258L183.005 -169.675L183.005 9.49213L541.338 9.49213" stroke="#2421C4" stroke-width="268.75"/>
<path d="M183.005 -259.258L183.005 -169.675L183.005 9.49213L541.338 9.49213" stroke="url(#paint0_linear_1259_14364)" stroke-width="268.75"/>
<path d="M1258 57.0342V278.259C1258 575.112 1017.36 815.759 720.504 815.759V815.759C423.651 815.759 183.004 575.112 183.004 278.259V246.715" stroke="#2421C4" stroke-width="268.75"/>
<path d="M1258 57.0342V278.259C1258 575.112 1017.36 815.759 720.504 815.759V815.759C423.651 815.759 183.004 575.112 183.004 278.259V246.715" stroke="url(#paint1_linear_1259_14364)" stroke-width="268.75"/>
<path d="M1258 278.246L1258 188.663L1258 9.49617L899.666 9.49619" stroke="#2421C4" stroke-width="268.75"/>
<path d="M1258 278.246L1258 188.663L1258 9.49617L899.666 9.49619" stroke="url(#paint2_linear_1259_14364)" stroke-width="268.75"/>
</g>
<rect y="-40" width="1440" height="584" fill="url(#paint3_linear_1259_14364)" fill-opacity="0.95"/>
<g clip-path="url(#clip0_1259_14364)">
<g filter="url(#filter1_dd_1259_14364)">
<g clip-path="url(#clip1_1259_14364)">
<rect x="872.812" y="638" width="311.25" height="175.326" rx="19.7212" transform="rotate(70.0567 872.812 638)" fill="#E8E8F3"/>
<path d="M825.255 797.856C798.997 800.589 775.492 781.515 772.757 755.251C770.025 728.997 789.097 705.491 815.355 702.761C841.615 700.024 865.121 719.098 867.855 745.354C870.59 771.617 851.515 795.122 825.255 797.856Z" fill="#F7931A"/>
<path fill-rule="evenodd" clip-rule="evenodd" d="M833.612 768.659C840.249 767.309 841.907 761.32 841.804 753.992L851.1 753.008L850.524 747.384L841.472 748.342C841.321 746.863 841.137 745.355 840.953 743.857L850.064 742.893L849.489 737.272L840.195 738.253C840.045 737.038 839.9 735.844 839.78 734.678L839.809 734.675L839.017 726.917L832.973 727.558C832.973 727.558 833.478 731.703 833.394 731.642C833.627 733.92 832.372 734.803 831.246 735.14L820.655 736.261C820.67 736.418 820.685 736.624 820.676 736.86C820.67 736.798 820.663 736.734 820.657 736.669C820.644 736.539 820.63 736.403 820.615 736.266L805.778 737.834C805.046 737.811 803.853 737.511 803.687 735.919C803.63 735.998 803.27 731.831 803.27 731.831L796.397 731.428L797.147 738.748C797.23 739.566 797.304 740.376 797.377 741.179L797.377 741.179L797.377 741.181C797.426 741.714 797.474 742.244 797.525 742.77L788.123 743.767L788.697 749.386L798 748.401C798.126 749.947 798.266 751.441 798.417 752.899L789.156 753.876L789.733 759.501L799.119 758.509C800.633 767.908 803.707 774.272 812.725 774.149C819.987 774.051 822.852 770.348 823.6 764.843C825.604 767.927 828.757 769.654 833.612 768.659ZM804.958 748.911L804.958 748.911L804.958 748.91C804.922 748.496 804.889 748.125 804.856 747.81L817.314 746.493C817.354 746.877 817.412 747.341 817.479 747.867C818.074 752.574 819.294 762.221 812.702 762.918C806.255 763.603 805.366 753.523 804.958 748.911ZM823.101 746.814C823.43 750.663 824.15 759.059 830.01 758.44C836.004 757.805 834.964 749.769 834.456 745.844C834.399 745.403 834.348 745.013 834.315 744.692L823.017 745.887C823.044 746.152 823.071 746.464 823.101 746.814Z" fill="white"/>
<path d="M826.592 826.263L863.3 812.944L869.541 830.144C871.14 834.549 871.483 838.222 870.573 841.164C869.697 844.093 867.808 846.084 864.906 847.137C862.949 847.847 861.106 848.001 859.377 847.6C857.684 847.186 856.174 846.349 854.847 845.09C853.567 843.853 852.604 842.343 851.957 840.56L854.187 840.819C854.935 842.881 855.223 844.874 855.05 846.796C854.912 848.706 854.298 850.392 853.207 851.856C852.129 853.355 850.523 854.492 848.391 855.266C845.245 856.407 842.36 856.089 839.736 854.311C837.113 852.533 834.939 849.267 833.214 844.512L826.592 826.263ZM834.414 831.139L838.41 842.152C839.336 844.704 840.466 846.51 841.8 847.569C843.134 848.628 844.727 848.821 846.58 848.149C848.398 847.489 849.479 846.325 849.823 844.657C850.203 842.977 849.929 840.86 849.003 838.308L844.817 826.771L850.114 824.85L853.805 835.023C854.668 837.4 855.747 839.066 857.042 840.02C858.351 841.009 859.844 841.199 861.522 840.59C863.235 839.969 864.277 838.859 864.646 837.261C865.029 835.698 864.789 833.728 863.926 831.351L860.425 821.702L834.414 831.139ZM843.583 873.091L874.523 861.864L870.109 849.698L875.877 847.605L887.18 878.755L881.411 880.848L876.997 868.682L846.057 879.908L843.583 873.091ZM857.783 913.859C856.768 911.062 856.277 908.293 856.311 905.551C856.392 902.831 856.949 900.275 857.98 897.884C859.059 895.514 860.574 893.421 862.526 891.605C864.478 889.789 866.818 888.386 869.545 887.397C872.272 886.407 874.966 885.983 877.629 886.125C880.292 886.267 882.785 886.924 885.11 888.099C887.47 889.26 889.536 890.864 891.308 892.912C893.114 894.947 894.531 897.38 895.559 900.212C896.65 903.218 897.121 906.153 896.973 909.016C896.86 911.866 896.1 914.515 894.694 916.964L888.953 914.062C889.904 912.213 890.431 910.341 890.534 908.444C890.672 906.534 890.392 904.618 889.695 902.695C888.997 900.773 888.042 899.121 886.829 897.742C885.629 896.397 884.236 895.339 882.651 894.569C881.079 893.834 879.386 893.42 877.572 893.326C875.77 893.268 873.925 893.581 872.037 894.266C870.15 894.951 868.533 895.894 867.188 897.094C865.856 898.329 864.823 899.733 864.087 901.305C863.365 902.912 862.975 904.617 862.916 906.418C862.87 908.255 863.196 910.134 863.894 912.057C864.592 913.98 865.588 915.636 866.884 917.026C868.214 918.402 869.855 919.489 871.805 920.284L869.208 926.211C866.594 925.221 864.312 923.676 862.362 921.574C860.413 919.472 858.886 916.901 857.783 913.859Z" fill="#202020"/>
<rect x="685.526" y="705.957" width="310.806" height="175.326" rx="39.8469" transform="rotate(70.0567 685.526 705.957)" fill="#E8E8F3"/>
<path d="M663.155 893.056L669.777 911.305L664.166 913.341L657.544 895.092L663.155 893.056ZM647.613 899.289L655.129 920.003L649.413 922.077L639.424 894.546L676.132 881.226L685.855 908.023L680.139 910.097L672.889 890.117L647.613 899.289ZM654.873 937.123L685.812 925.896L681.398 913.73L687.166 911.637L698.469 942.787L692.701 944.88L688.286 932.714L657.346 943.94L654.873 937.123ZM709.687 973.704L712.161 980.521L675.453 993.84L672.979 987.023L709.687 973.704ZM666.091 968.04L663.617 961.223L700.325 947.903L702.799 954.72L666.091 968.04ZM688.901 981.839L681.614 961.755L687.434 959.642L694.722 979.727L688.901 981.839Z" fill="#202020"/>
</g>
</g>
<g filter="url(#filter2_dd_1259_14364)">
<g clip-path="url(#clip2_1259_14364)">
<rect x="488" y="585.14" width="311.022" height="175.121" rx="19.6981" transform="rotate(-21.7704 488 585.14)" fill="#E8E8F3"/>
<circle cx="601.791" cy="633.98" r="47.7604" transform="rotate(-21.7704 601.791 633.98)" fill="#EDEFF1"/>
<path d="M583.529 641.912L606.29 645.263L598.71 626.283L589.976 604.415L583.529 641.912Z" fill="#898989"/>
<path d="M589.976 604.413L598.71 626.281L606.29 645.26L620.48 627.152L589.976 604.413Z" fill="#323232"/>
<path d="M598.716 626.284L620.48 627.156L606.294 645.258L598.716 626.284Z" fill="#141414"/>
<path d="M598.709 626.283L598.716 626.282L606.293 645.255L606.289 645.262L583.529 641.911L598.709 626.283Z" fill="#373737"/>
<path d="M584.904 645.353L613.595 663.553L607.662 648.698L584.904 645.353Z" fill="#898989"/>
<path d="M607.662 648.699L613.595 663.554L621.866 630.593L607.662 648.699Z" fill="#323232"/>
<path d="M674.704 601.856L692.712 594.665L694.923 600.202L676.916 607.393L674.704 601.856ZM681.422 617.174L701.861 609.011L704.114 614.651L676.947 625.501L662.481 589.278L688.923 578.718L691.176 584.358L671.461 592.232L681.422 617.174ZM718.961 608.721L706.768 578.191L694.763 582.986L692.49 577.294L723.227 565.018L725.5 570.71L713.495 575.505L725.688 606.035L718.961 608.721ZM753.735 552.834L760.462 550.147L774.928 586.37L768.201 589.056L753.735 552.834ZM749.469 596.537L742.742 599.224L728.276 563.002L735.003 560.315L749.469 596.537ZM762.519 573.326L742.7 581.241L740.406 575.497L760.225 567.582L762.519 573.326Z" fill="#202020"/>
<rect x="561.807" y="769.947" width="310.442" height="175.121" rx="39.8003" transform="rotate(-21.7704 561.807 769.947)" fill="#E8E8F3"/>
<path d="M748.512 786.664L766.519 779.472L768.731 785.009L750.723 792.201L748.512 786.664ZM755.229 801.981L775.669 793.818L777.921 799.459L750.755 810.308L736.288 774.086L762.731 763.525L764.983 769.166L745.268 777.04L755.229 801.981ZM792.769 793.529L780.576 762.999L768.57 767.793L766.297 762.101L797.034 749.825L799.308 755.518L787.303 760.312L799.496 790.842L792.769 793.529ZM827.542 737.642L834.269 734.955L848.735 771.177L842.008 773.864L827.542 737.642ZM823.276 781.345L816.549 784.032L802.083 747.809L808.81 745.123L823.276 781.345ZM836.326 758.133L816.507 766.049L814.213 760.305L834.032 752.39L836.326 758.133Z" fill="#202020"/>
</g>
</g>
<g filter="url(#filter3_dd_1259_14364)">
<g clip-path="url(#clip3_1259_14364)">
<rect x="444" y="917.548" width="328.895" height="175.008" rx="19.6852" transform="rotate(-53.8617 444 917.548)" fill="#E8E8F3"/>
<g clip-path="url(#clip4_1259_14364)">
<rect x="499.579" y="908.884" width="95.4576" height="95.4576" rx="47.7288" transform="rotate(-53.8627 499.579 908.884)" fill="white"/>
<path fill-rule="evenodd" clip-rule="evenodd" d="M488.32 924.302L514.59 888.325L591.683 944.619L565.412 980.595L488.32 924.302ZM540.861 852.349L567.131 816.373L644.223 872.666L617.953 908.643L540.861 852.349Z" fill="#0A6A30"/>
</g>
<path d="M625.874 850.778L594.395 827.79L597.909 822.979L636.564 820.937L634.823 823.32L610.584 805.62L614.821 799.819L646.3 822.806L642.786 827.618L604.131 829.66L605.871 827.276L630.11 844.976L625.874 850.778ZM663.647 799.994C661.852 802.453 659.81 804.432 657.519 805.931C655.221 807.378 652.794 808.341 650.239 808.819C647.653 809.276 645.065 809.201 642.473 808.596C639.881 807.99 637.416 806.834 635.078 805.126C632.739 803.418 630.887 801.422 629.522 799.138C628.156 796.854 627.312 794.422 626.989 791.842C626.659 789.21 626.859 786.575 627.59 783.937C628.291 781.278 629.539 778.719 631.335 776.26C633.283 773.592 635.469 771.511 637.893 770.017C640.339 768.494 642.937 767.61 645.689 767.367L646.594 773.682C644.467 774.014 642.593 774.691 640.973 775.714C639.344 776.685 637.906 778.025 636.658 779.734C635.454 781.383 634.607 783.109 634.118 784.912C633.629 786.715 633.507 788.488 633.752 790.23C633.997 791.971 634.586 793.62 635.519 795.174C636.474 796.699 637.761 798.053 639.38 799.235C640.969 800.395 642.635 801.198 644.378 801.644C646.143 802.059 647.907 802.129 649.671 801.855C651.405 801.558 653.045 800.917 654.592 799.932C656.138 798.947 657.525 797.615 658.751 795.936C659.889 794.377 660.744 792.703 661.315 790.913C661.878 789.072 662.057 787.065 661.851 784.892L668.643 784.75C668.758 787.362 668.361 790.014 667.452 792.706C666.536 795.346 665.267 797.776 663.647 799.994ZM663.839 789.723L652.057 781.119L656.096 775.588L668.643 784.75L663.839 789.723ZM677.826 779.633L646.347 756.646L649.861 751.834L688.516 749.793L686.775 752.176L662.537 734.476L666.773 728.675L698.252 751.662L694.738 756.474L656.083 758.516L657.823 756.132L682.062 773.832L677.826 779.633Z" fill="#202020"/>
<rect x="604.607" y="1034.83" width="310.239" height="175.007" rx="39.7742" transform="rotate(-53.8617 604.607 1034.83)" fill="#E8E8F3"/>
<circle cx="726.879" cy="1015.77" r="47.7291" transform="rotate(-53.8617 726.879 1015.77)" fill="#EDEFF1"/>
<path d="M771.611 949.804L783.039 934.154L787.851 937.668L776.423 953.317L771.611 949.804ZM785.43 959.206L798.402 941.442L803.303 945.022L786.063 968.631L754.584 945.644L771.365 922.664L776.266 926.244L763.755 943.377L785.43 959.206ZM812.726 932.119L786.193 912.744L778.575 923.177L773.628 919.565L793.134 892.853L798.081 896.465L790.462 906.898L816.995 926.273L812.726 932.119ZM812.495 866.34L816.764 860.494L848.243 883.481L843.974 889.327L812.495 866.34ZM832.086 905.606L827.817 911.452L796.338 888.465L800.607 882.619L832.086 905.606ZM830.811 879.026L818.234 896.249L813.242 892.604L825.82 875.381L830.811 879.026Z" fill="#202020"/>
<rect x="765.215" y="1152.11" width="310.239" height="175.007" rx="39.7742" transform="rotate(-53.8617 765.215 1152.11)" fill="#E8E8F3"/>
</g>
</g>
</g>
<rect y="-40" width="1440" height="269" fill="url(#paint4_linear_1259_14364)"/>
<defs>
<filter id="filter0_i_1259_14364" x="48.625" y="-941.125" width="1343.75" height="1891.26" filterUnits="userSpaceOnUse" color-interpolation-filters="sRGB">
<feFlood flood-opacity="0" result="BackgroundImageFix"/>
<feBlend mode="normal" in="SourceGraphic" in2="BackgroundImageFix" result="shape"/>
<feColorMatrix in="SourceAlpha" type="matrix" values="0 0 0 0 0 0 0 0 0 0 0 0 0 0 0 0 0 0 127 0" result="hardAlpha"/>
<feOffset dy="-10"/>
<feGaussianBlur stdDeviation="15"/>
<feComposite in2="hardAlpha" operator="arithmetic" k2="-1" k3="1"/>
<feColorMatrix type="matrix" values="0 0 0 0 0 0 0 0 0 0 0 0 0 0 0 0 0 0 0.5 0"/>
<feBlend mode="normal" in2="shape" result="effect1_innerShadow_1259_14364"/>
</filter>
<filter id="filter1_dd_1259_14364" x="668" y="618" width="350.825" height="431.969" filterUnits="userSpaceOnUse" color-interpolation-filters="sRGB">
<feFlood flood-opacity="0" result="BackgroundImageFix"/>
<feColorMatrix in="SourceAlpha" type="matrix" values="0 0 0 0 0 0 0 0 0 0 0 0 0 0 0 0 0 0 127 0" result="hardAlpha"/>
<feOffset dy="4"/>
<feGaussianBlur stdDeviation="2"/>
<feComposite in2="hardAlpha" operator="out"/>
<feColorMatrix type="matrix" values="0 0 0 0 0 0 0 0 0 0 0 0 0 0 0 0 0 0 0.25 0"/>
<feBlend mode="normal" in2="BackgroundImageFix" result="effect1_dropShadow_1259_14364"/>
<feColorMatrix in="SourceAlpha" type="matrix" values="0 0 0 0 0 0 0 0 0 0 0 0 0 0 0 0 0 0 127 0" result="hardAlpha"/>
<feOffset dy="20"/>
<feGaussianBlur stdDeviation="20"/>
<feComposite in2="hardAlpha" operator="out"/>
<feColorMatrix type="matrix" values="0 0 0 0 0 0 0 0 0 0 0 0 0 0 0 0 0 0 0.6 0"/>
<feBlend mode="normal" in2="effect1_dropShadow_1259_14364" result="effect2_dropShadow_1259_14364"/>
<feBlend mode="normal" in="SourceGraphic" in2="effect2_dropShadow_1259_14364" result="shape"/>
</filter>
<filter id="filter2_dd_1259_14364" x="448" y="450" width="433.251" height="357.771" filterUnits="userSpaceOnUse" color-interpolation-filters="sRGB">
<feFlood flood-opacity="0" result="BackgroundImageFix"/>
<feColorMatrix in="SourceAlpha" type="matrix" values="0 0 0 0 0 0 0 0 0 0 0 0 0 0 0 0 0 0 127 0" result="hardAlpha"/>
<feOffset dy="4"/>
<feGaussianBlur stdDeviation="2"/>
<feComposite in2="hardAlpha" operator="out"/>
<feColorMatrix type="matrix" values="0 0 0 0 0 0 0 0 0 0 0 0 0 0 0 0 0 0 0.25 0"/>
<feBlend mode="normal" in2="BackgroundImageFix" result="effect1_dropShadow_1259_14364"/>
<feColorMatrix in="SourceAlpha" type="matrix" values="0 0 0 0 0 0 0 0 0 0 0 0 0 0 0 0 0 0 127 0" result="hardAlpha"/>
<feOffset dy="20"/>
<feGaussianBlur stdDeviation="20"/>
<feComposite in2="hardAlpha" operator="out"/>
<feColorMatrix type="matrix" values="0 0 0 0 0 0 0 0 0 0 0 0 0 0 0 0 0 0 0.6 0"/>
<feBlend mode="normal" in2="effect1_dropShadow_1259_14364" result="effect2_dropShadow_1259_14364"/>
<feBlend mode="normal" in="SourceGraphic" in2="effect2_dropShadow_1259_14364" result="shape"/>
</filter>
<filter id="filter3_dd_1259_14364" x="404" y="647" width="404.294" height="433.756" filterUnits="userSpaceOnUse" color-interpolation-filters="sRGB">
<feFlood flood-opacity="0" result="BackgroundImageFix"/>
<feColorMatrix in="SourceAlpha" type="matrix" values="0 0 0 0 0 0 0 0 0 0 0 0 0 0 0 0 0 0 127 0" result="hardAlpha"/>
<feOffset dy="4"/>
<feGaussianBlur stdDeviation="2"/>
<feComposite in2="hardAlpha" operator="out"/>
<feColorMatrix type="matrix" values="0 0 0 0 0 0 0 0 0 0 0 0 0 0 0 0 0 0 0.25 0"/>
<feBlend mode="normal" in2="BackgroundImageFix" result="effect1_dropShadow_1259_14364"/>
<feColorMatrix in="SourceAlpha" type="matrix" values="0 0 0 0 0 0 0 0 0 0 0 0 0 0 0 0 0 0 127 0" result="hardAlpha"/>
<feOffset dy="20"/>
<feGaussianBlur stdDeviation="20"/>
<feComposite in2="hardAlpha" operator="out"/>
<feColorMatrix type="matrix" values="0 0 0 0 0 0 0 0 0 0 0 0 0 0 0 0 0 0 0.6 0"/>
<feBlend mode="normal" in2="effect1_dropShadow_1259_14364" result="effect2_dropShadow_1259_14364"/>
<feBlend mode="normal" in="SourceGraphic" in2="effect2_dropShadow_1259_14364" result="shape"/>
</filter>
<linearGradient id="paint0_linear_1259_14364" x1="183.005" y1="-1166.27" x2="183.005" y2="135.485" gradientUnits="userSpaceOnUse">
<stop stop-color="#4B48DC"/>
<stop offset="1" stop-color="#D048DC"/>
</linearGradient>
<linearGradient id="paint1_linear_1259_14364" x1="720.504" y1="815.759" x2="720.504" y2="57.0342" gradientUnits="userSpaceOnUse">
<stop stop-color="#000C7C"/>
<stop offset="1" stop-color="#D048DC"/>
</linearGradient>
<linearGradient id="paint2_linear_1259_14364" x1="1224.41" y1="1287.5" x2="1224.41" y2="-116.476" gradientUnits="userSpaceOnUse">
<stop offset="0.411458" stop-color="#4B48DC"/>
<stop offset="1" stop-color="#D048DC"/>
</linearGradient>
<linearGradient id="paint3_linear_1259_14364" x1="720" y1="-40" x2="720" y2="544" gradientUnits="userSpaceOnUse">
<stop offset="0.40625" stop-opacity="0.91"/>
<stop offset="0.979167" stop-opacity="0"/>
</linearGradient>
<linearGradient id="paint4_linear_1259_14364" x1="720" y1="-40" x2="720" y2="229" gradientUnits="userSpaceOnUse">
<stop offset="0.697917"/>
<stop offset="1" stop-opacity="0"/>
</linearGradient>
<clipPath id="clip0_1259_14364">
<path d="M50 -40H1390V281C1390 651.031 1090.03 951 720 951V951C349.969 951 50 651.031 50 281V-40Z" fill="white"/>
</clipPath>
<clipPath id="clip1_1259_14364">
<rect x="872.812" y="638" width="310.806" height="175.326" rx="31.5539" transform="rotate(70.0567 872.812 638)" fill="white"/>
</clipPath>
<clipPath id="clip2_1259_14364">
<rect x="488" y="585.14" width="310.442" height="175.121" rx="31.517" transform="rotate(-21.7704 488 585.14)" fill="white"/>
</clipPath>
<clipPath id="clip3_1259_14364">
<rect x="444" y="917.548" width="310.239" height="175.007" rx="31.4964" transform="rotate(-53.8617 444 917.548)" fill="white"/>
</clipPath>
<clipPath id="clip4_1259_14364">
<rect x="499.579" y="908.884" width="95.4576" height="95.4576" rx="47.7288" transform="rotate(-53.8627 499.579 908.884)" fill="white"/>
</clipPath>
</defs>
</svg>
